<?xml version="1.0" encoding="UTF-8"?>
<svg width="247px" height="83px" viewBox="0 0 247 83" version="1.1" xmlns="http://www.w3.org/2000/svg" xmlns:xlink="http://www.w3.org/1999/xlink">
    <!-- Generator: Sketch 39.1 (31720) - http://www.bohemiancoding.com/sketch -->
    <title>Artboard</title>
    <desc>Created with Sketch.</desc>
    <defs></defs>
    <g id="Page-1" stroke="none" stroke-width="1" fill="none" fill-rule="evenodd">
        <g id="Artboard">
            <g id="LOGO_SUBAGAN">
                <g id="Group">
                    <path d="M2,32.8 L8.4,32.8 C8.5,34.9 8.3,38.3 9,39.3 C9.8,40.3 10.4,41.1 11.9,41.1 C13.2,41.1 13.8,40.8 14.6,40.1 C15.4,39.4 15.6,37.6 15.6,36.5 C15.6,34.4 14.4,31.5 10.7,28.2 L10,27.6 C6.3,24.3 3.9,21.8 2.9,20 C1.9,18.2 1.3,16.3 1.3,14.4 C1.3,11.5 2.4,9.1 4.5,7.1 C6.6,5.1 9.2,4.2 12.2,4.2 C15.1,4.2 17.6,5.1 19.5,6.9 C21.4,8.7 21.5,12.4 21.7,15.5 L15.4,15.5 C15.3,13.7 15.4,12 14.8,11.2 C14.2,10.4 13.3,10 12,10 C10.9,10 10,10.3 9.3,11 C8.6,11.7 8.3,12.6 8.3,13.8 C8.3,16.2 10.5,19.2 14.9,23 L15.3,23.4 C18.5,26.2 20.6,28.5 21.6,30.3 C22.6,32.1 23.1,34.1 23.1,36.3 C23.1,39.3 22.1,41.7 20,43.6 C18,45.5 15.4,46.5 12.2,46.5 C8.7,46.5 6,45.5 3.9,43.5 C2,41.4 2.2,36.4 2,32.8 L2,32.8 Z" id="Shape" fill="#1B67BF"></path>
                    <path d="M27.9,4.8 L35,4.8 L35,36.3 C35,37.5 35.3,38.4 36,39.1 C36.7,39.8 37.6,40.1 38.7,40.1 C39.8,40.1 40.7,39.7 41.3,39.1 C41.9,38.4 42.2,37.5 42.2,36.3 L42.2,4.8 L49.3,4.8 L49.3,35.3 C49.3,38.9 48.4,41.6 46.5,43.5 C44.7,45.4 42,46.4 38.5,46.4 C35,46.4 32.3,45.4 30.5,43.5 C28.6,41.6 27.7,38.8 27.7,35.1 L27.7,4.8 L27.9,4.8 Z" id="Shape" fill="#1B67BF"></path>
                    <path d="M56.2,45.5 L56.2,4.8 L65.5,4.8 C69.2,4.8 72.1,5.7 74.1,7.6 C76.1,9.5 77.1,12.1 77.1,15.4 C77.1,17.4 76.7,19.2 75.9,20.7 C75.1,22.2 73.9,23.5 72.2,24.6 C74.1,25.5 75.4,26.8 76.3,28.4 C77.2,30 77.6,32 77.6,34.5 C77.6,38.2 76.7,41 74.9,42.7 C73.1,44.5 70.3,45.4 66.4,45.4 L56.2,45.4 L56.2,45.5 Z M63.2,21.7 L66,21.7 C67.3,21.7 68.2,21.2 69,20.2 C69.7,19.2 70.1,17.9 70.1,16.1 C70.1,14.2 69.7,12.8 69,11.9 C68.3,11 67.1,10.6 65.5,10.6 L63.2,10.6 L63.2,21.7 L63.2,21.7 Z M63.2,39.6 L66.2,39.6 C67.7,39.6 68.8,39.1 69.5,38.2 C70.2,37.3 70.6,35.8 70.6,33.8 C70.6,31.6 70.2,30 69.4,29.1 C68.6,28.1 67.3,27.7 65.5,27.7 L63.2,27.7 L63.2,39.6 L63.2,39.6 Z" id="Shape" fill="#1B67BF"></path>
                    <path d="M80.2,45.5 L87.6,4.8 L96.7,4.8 L104.1,45.5 L96.9,45.5 L95.5,36.7 L88.4,36.7 L86.9,45.5 L80.2,45.5 L80.2,45.5 Z M89.5,30.9 L94.8,30.9 L92.4,13.9 L92,13.9 L89.5,30.9 L89.5,30.9 Z" id="Shape" fill="#1B67BF"></path>
                    <path d="M107.4,35.1 L107.4,14.2 C107.4,11 108.4,8.5 110.3,6.6 C112.3,4.8 114.9,3.9 118.4,3.9 C121.7,3.9 124.2,4.8 125.9,6.5 C127.6,8.3 128.5,10.9 128.5,14.3 L128.5,18.1 L121.8,18.1 L121.8,13.8 C121.8,12.4 121.5,11.3 120.9,10.6 C120.3,9.9 119.4,9.5 118.2,9.5 C117,9.5 116.1,9.9 115.5,10.6 C114.9,11.3 114.6,12.4 114.6,13.8 L114.6,36.5 C114.6,37.9 114.9,39 115.5,39.7 C116.1,40.4 117,40.8 118.2,40.8 C119.4,40.8 120.3,40.5 120.9,39.7 C121.5,39 121.8,37.9 121.8,36.5 L121.8,30.1 L117.6,30.1 L117.6,25 L128.6,25 L128.6,45.5 L125.3,45.5 L124,42.7 C123.2,44 122.3,44.9 121.2,45.5 C120.1,46.1 118.8,46.4 117.2,46.4 C114.1,46.4 111.7,45.4 110.1,43.5 C108.3,41.5 107.4,38.7 107.4,35.1 L107.4,35.1 Z" id="Shape" fill="#1B67BF"></path>
                    <path d="M131.8,45.5 L139.2,4.8 L148.3,4.8 L155.7,45.5 L148.5,45.5 L147.1,36.7 L140,36.7 L138.5,45.5 L131.8,45.5 L131.8,45.5 Z M141,30.9 L146.3,30.9 L143.9,13.9 L143.4,13.9 L141,30.9 L141,30.9 Z" id="Shape" fill="#1B67BF"></path>
                    <path d="M159.8,45.5 L159.8,4.8 L166.1,4.8 L175,29.1 C175.2,29.6 175.4,30.2 175.6,31 C175.8,31.8 176.1,32.6 176.3,33.5 C176.1,32.3 175.9,31.2 175.7,30.2 C175.6,29.2 175.5,28.4 175.5,28 L175.5,4.8 L182.1,4.8 L182.1,45.5 L175.5,45.5 L167,23 C167,22.9 166.9,22.8 166.8,22.6 C166.2,21.1 165.8,19.7 165.5,18.6 C165.8,20 165.9,21.2 166.1,22.2 C166.2,23.2 166.3,23.8 166.3,24.3 L166.3,45.6 L159.8,45.6 L159.8,45.5 Z" id="Shape" fill="#1B67BF"></path>
                    <path d="M239.2,9.3 C240.2,18.1 231.1,15.6 231.1,15.6 L229.7,13.1 C229.7,13.1 234.2,9.2 231.8,7.4 C229.5,5.6 229,10.8 225.9,11.6 C224.6,7.3 215.1,8.7 215.1,8.7 C215.1,8.7 214.1,4.5 211.7,6.1 C210,7.6 212.7,11.7 212.7,11.7 C212.7,11.7 209.7,14.9 212.1,18.8 L213.3,22.4 C213.3,22.4 212.3,25.6 208.5,29.6 C208.5,29.6 208.5,32.8 210.8,33.9 C210.8,33.9 213.3,35.8 218.7,34.9 C218.7,35 218.9,38.7 218.9,38.7 L221.6,39.9 L221.9,43.2 L227,44.4 C227,44.4 231.5,50.1 233.6,50.7 L233.9,54.6 C233.9,54.6 245.6,54.6 245.9,56.7 C245.9,56.7 250.2,89.4 203,81 C203,81 180.5,76.6 187.6,56.6 C187.6,56.6 191.5,48.3 199.7,51 L215.9,59.1 L217.2,59.9 L212.6,67.8 C212.6,67.8 211.2,74.5 220.4,72.8 L225.9,63.8 L229.3,64.8 L230.6,61.9 L227.6,60.6 L228.2,58.7 C228.2,58.7 231.8,52.5 221.6,51.9 L218.6,55.9 C218.6,55.9 199.5,43.3 196.4,41.1 C190.9,37.8 181.1,24.8 192.2,11.5 C192.1,11.5 214.6,-12.8 239.2,9.3 L239.2,9.3 Z" id="Shape" fill="#F26501"></path>
                    <rect id="Rectangle-path" fill="#F26501" x="0.6" y="49.2" width="182.8" height="5.1"></rect>
                    <g transform="translate(1.000000, 57.000000)" id="Shape" fill="#1B67BF">
                        <path d="M0.9,15.1 L4.4,14.7 C4.5,15.7 4.7,16.4 5.1,16.9 C5.5,17.4 6.1,17.6 6.9,17.6 C7.6,17.6 8.1,17.4 8.5,17.1 C8.9,16.8 9.1,16.3 9.1,15.7 C9.1,14.7 8.1,13.4 6.1,11.8 L5.8,11.5 C3.9,9.9 2.6,8.8 2.1,7.9 C1.6,7.1 1.3,6.2 1.3,5.2 C1.3,3.8 1.8,2.7 2.9,1.8 C4,0.9 5.4,0.4 7,0.4 C8.5,0.4 9.8,0.8 10.8,1.7 C11.8,2.5 12.3,3.7 12.5,5.2 L8.9,5.6 C8.8,4.7 8.7,4.1 8.3,3.8 C8,3.4 7.5,3.3 6.9,3.3 C6.3,3.3 5.8,3.4 5.5,3.8 C5.1,4.1 5,4.6 5,5.1 C5,6.2 6.1,7.7 8.5,9.5 L8.7,9.7 C10.4,11 11.5,12.1 12,13 C12.5,13.8 12.8,14.8 12.8,15.8 C12.8,17.2 12.2,18.4 11.2,19.2 C10.1,20.1 8.7,20.5 7.1,20.5 C5.3,20.5 3.8,20 2.8,19.1 C1.6,18 1,16.7 0.9,15.1 L0.9,15.1 Z"></path>
                        <path d="M24.2,5.8 L24.2,19.9 L21,19.9 L21,18.3 C20.4,18.9 19.8,19.3 19.1,19.6 C18.4,19.9 17.8,20 17.2,20 C16.4,20 15.9,19.8 15.5,19.4 C15.1,19 14.9,18.3 14.9,17.5 L14.9,5.8 L18.2,5.8 L18.2,16.7 C18.2,17 18.3,17.3 18.4,17.4 C18.5,17.6 18.8,17.6 19.1,17.6 C19.4,17.6 19.6,17.5 20,17.3 C20.4,17.1 20.7,16.8 21,16.6 L21,5.8 L24.2,5.8 L24.2,5.8 Z"></path>
                        <path d="M27.4,19.9 L27.4,0.7 L30.7,0.7 L30.7,6.9 C31.1,6.5 31.6,6.1 32.1,5.9 C32.6,5.7 33.1,5.6 33.6,5.6 C34.6,5.6 35.4,5.9 36,6.5 C36.5,7.1 36.8,8 36.8,9.1 L36.8,17 C36.8,18 36.5,18.8 36,19.3 C35.5,19.8 34.8,20.1 33.8,20.1 C33.2,20.1 32.6,20 32.1,19.8 C31.6,19.6 31.1,19.3 30.7,18.9 L30.7,20 L27.4,20 L27.4,19.9 Z M30.7,17.2 C31,17.4 31.2,17.6 31.5,17.7 C31.7,17.8 32,17.8 32.3,17.8 C32.7,17.8 33,17.7 33.2,17.5 C33.4,17.3 33.5,17 33.5,16.5 L33.5,9.2 C33.5,8.7 33.4,8.4 33.1,8.1 C32.9,7.9 32.5,7.7 32.1,7.7 C31.9,7.7 31.6,7.7 31.4,7.8 C31.2,7.9 30.9,8.1 30.7,8.2 L30.7,17.2 L30.7,17.2 Z"></path>
                        <path d="M45.3,18.3 C44.8,18.9 44.2,19.3 43.6,19.6 C43,19.9 42.3,20.1 41.7,20.1 C40.8,20.1 40.1,19.8 39.6,19.3 C39.1,18.8 38.8,18 38.8,17 C38.8,15.7 39.3,14.6 40.2,13.6 C41.1,12.7 42.8,11.7 45.3,10.6 L45.3,9.1 C45.3,8.7 45.2,8.4 45,8.1 C44.8,7.9 44.5,7.8 44.2,7.8 C43.7,7.8 43.4,7.9 43.1,8.1 C42.8,8.3 42.7,8.6 42.7,9 L42.7,9.8 L39.4,9.8 L39.4,9.6 L39.4,9.4 C39.4,8.2 39.9,7.3 40.8,6.5 C41.7,5.8 42.9,5.4 44.3,5.4 C45.8,5.4 46.9,5.8 47.6,6.5 C48.3,7.2 48.7,8.3 48.7,9.9 L48.7,15.9 C48.7,16.9 48.7,17.7 48.8,18.4 C48.9,19.1 48.9,19.6 49,20 L45.7,20 C45.6,19.8 45.5,19.6 45.5,19.3 C45.4,19 45.4,18.7 45.3,18.3 L45.3,18.3 Z M45.3,16.4 L45.3,12.7 C44.1,13.3 43.3,13.9 42.9,14.4 C42.5,14.9 42.2,15.5 42.2,16.3 C42.2,16.7 42.3,17.1 42.5,17.3 C42.7,17.5 42.9,17.7 43.2,17.7 C43.6,17.7 44,17.6 44.4,17.3 C44.7,17.1 45,16.8 45.3,16.4 L45.3,16.4 Z"></path>
                        <path d="M50.6,16.1 L53.7,15.5 C53.8,16.3 54.1,16.9 54.4,17.3 C54.7,17.7 55.2,17.8 55.8,17.8 C56.3,17.8 56.6,17.7 56.9,17.5 C57.2,17.3 57.3,17 57.3,16.6 C57.3,15.9 56.2,14.8 54,13.5 L54,13.4 C52.9,12.7 52.1,12.1 51.6,11.4 C51.1,10.8 50.9,10.1 50.9,9.2 C50.9,8 51.4,7.1 52.2,6.4 C53.1,5.7 54.3,5.3 55.7,5.3 C57.1,5.3 58.2,5.6 59,6.3 C59.8,7 60.3,7.8 60.4,9 L57.3,9.6 C57.2,9 57,8.5 56.7,8.2 C56.4,7.9 56,7.8 55.6,7.8 C55.1,7.8 54.8,7.9 54.5,8.1 C54.2,8.3 54.1,8.6 54.1,9 C54.1,9.6 54.9,10.4 56.4,11.4 C56.8,11.7 57.1,11.9 57.4,12 C58.6,12.8 59.5,13.5 59.9,14.1 C60.3,14.7 60.6,15.4 60.6,16.2 C60.6,17.4 60.2,18.3 59.3,19 C58.4,19.7 57.2,20.1 55.7,20.1 C54.3,20.1 53.1,19.7 52.2,19 C51.3,18.4 50.8,17.4 50.6,16.1 L50.6,16.1 Z"></path>
                        <path d="M63.9,16.9 L63.9,7.9 L61.9,7.9 L61.9,5.7 L63.9,5.7 L63.9,1.6 L67.1,1.6 L67.1,5.7 L69.6,5.7 L69.6,7.9 L67.1,7.9 L67.1,16.6 C67.1,17 67.2,17.3 67.5,17.5 C67.8,17.7 68.1,17.8 68.6,17.8 L69,17.8 C69.2,17.8 69.3,17.8 69.6,17.7 L69.6,20 C69.3,20.1 69,20.2 68.7,20.2 C68.4,20.2 68.1,20.3 67.7,20.3 C66.4,20.3 65.5,20 64.8,19.5 C64.2,18.9 63.9,18.1 63.9,16.9 L63.9,16.9 Z"></path>
                        <path d="M77.7,18.3 C77.2,18.9 76.6,19.3 76,19.6 C75.4,19.9 74.7,20.1 74.1,20.1 C73.2,20.1 72.5,19.8 72,19.3 C71.5,18.8 71.3,18 71.3,17 C71.3,15.7 71.7,14.6 72.7,13.6 C73.6,12.7 75.3,11.7 77.8,10.6 L77.8,9.1 C77.8,8.7 77.7,8.4 77.5,8.1 C77.3,7.9 77,7.8 76.7,7.8 C76.2,7.8 75.9,7.9 75.6,8.1 C75.3,8.3 75.2,8.6 75.2,9 L75.2,9.8 L71.9,9.8 L71.9,9.6 L71.9,9.4 C71.9,8.2 72.4,7.3 73.3,6.5 C74.2,5.8 75.4,5.4 76.8,5.4 C78.3,5.4 79.4,5.8 80.1,6.5 C80.8,7.2 81.2,8.3 81.2,9.9 L81.2,15.9 C81.2,16.9 81.2,17.7 81.3,18.4 C81.3,19.1 81.4,19.6 81.5,20 L78,20 C77.9,19.8 77.9,19.6 77.8,19.3 C77.7,19 77.7,18.7 77.7,18.3 L77.7,18.3 Z M77.6,16.4 L77.6,12.7 C76.4,13.3 75.6,13.9 75.2,14.4 C74.8,14.9 74.5,15.5 74.5,16.3 C74.5,16.7 74.6,17.1 74.8,17.3 C75,17.5 75.2,17.7 75.5,17.7 C75.9,17.7 76.3,17.6 76.6,17.3 C77,17.1 77.3,16.8 77.6,16.4 L77.6,16.4 Z"></path>
                        <path d="M92.4,15.8 C91.6,15.4 91.1,15 90.8,14.5 C90.5,14 90.3,13.3 90.3,12.5 L90.3,9.7 C90.3,8.4 90.7,7.3 91.5,6.6 C92.3,5.9 93.4,5.5 94.8,5.5 C95.6,5.5 96.3,5.6 96.9,5.9 C97.5,6.1 98.1,6.5 98.6,7.1 C98.8,6.7 99.2,6.3 99.6,6.1 C100,5.9 100.5,5.7 101.1,5.7 L101.1,8 L100.7,8 L100.4,8 C100.1,8 99.9,8 99.7,8.1 C99.5,8.2 99.3,8.3 99.2,8.5 L99.2,9 L99.2,9.5 L99.2,12.7 C99.2,13.9 98.9,14.9 98.1,15.5 C97.4,16.2 96.3,16.5 95,16.5 C94.8,16.5 94.6,16.5 94.2,16.4 L94.1,16.4 C93.8,16.6 93.7,16.7 93.5,16.9 C93.4,17.1 93.3,17.2 93.3,17.3 C93.3,17.7 93.9,18 95.2,18 C96,18 96.6,18.1 97.1,18.1 C98.5,18.3 99.6,18.6 100.2,19.1 C100.9,19.6 101.2,20.3 101.2,21.2 C101.2,22.3 100.7,23.1 99.6,23.7 C98.5,24.3 96.9,24.5 94.9,24.5 C93.1,24.5 91.8,24.3 90.8,23.9 C89.8,23.5 89.3,23 89.3,22.3 C89.3,22.1 89.4,21.8 89.5,21.6 C89.6,21.4 89.8,21.2 90,21 C90.2,20.8 90.5,20.7 90.8,20.5 C91.2,20.3 91.6,20.2 92.1,20 C91.4,19.9 91,19.7 90.6,19.4 C90.3,19.1 90.1,18.8 90.1,18.4 C90.1,18 90.2,17.5 90.6,17.2 C91,16.7 91.6,16.3 92.4,15.8 L92.4,15.8 Z M94.2,20.2 C93.8,20.4 93.5,20.5 93.2,20.7 C93,20.9 92.9,21.1 92.9,21.3 C92.9,21.6 93.1,21.9 93.6,22.1 C94,22.3 94.6,22.4 95.3,22.4 C96.2,22.4 96.9,22.3 97.4,22.1 C97.9,21.9 98.2,21.6 98.2,21.3 C98.2,20.9 97.9,20.7 97.3,20.5 C96.8,20.3 95.7,20.2 94.2,20.2 L94.2,20.2 Z M96.2,12.6 L96.2,9.3 C96.2,8.8 96.1,8.5 95.8,8.2 C95.6,7.9 95.2,7.8 94.7,7.8 C94.2,7.8 93.9,7.9 93.6,8.2 C93.4,8.4 93.3,8.8 93.3,9.3 L93.3,12.6 C93.3,13.1 93.4,13.5 93.6,13.7 C93.8,14 94.2,14.1 94.7,14.1 C95.2,14.1 95.5,14 95.8,13.7 C96,13.4 96.2,13.1 96.2,12.6 L96.2,12.6 Z"></path>
                        <path d="M108.2,18.3 C107.7,18.9 107.1,19.3 106.5,19.6 C105.9,19.9 105.2,20.1 104.6,20.1 C103.7,20.1 103,19.8 102.5,19.3 C102,18.8 101.8,18 101.8,17 C101.8,15.7 102.3,14.6 103.2,13.6 C104.1,12.7 105.8,11.7 108.3,10.6 L108.3,9.1 C108.3,8.7 108.2,8.4 108,8.1 C107.8,7.9 107.5,7.8 107.2,7.8 C106.7,7.8 106.4,7.9 106.1,8.1 C105.8,8.3 105.7,8.6 105.7,9 L105.7,9.8 L102.4,9.8 L102.4,9.6 L102.4,9.4 C102.4,8.2 102.9,7.3 103.8,6.5 C104.7,5.8 105.9,5.4 107.3,5.4 C108.8,5.4 109.9,5.8 110.6,6.5 C111.3,7.2 111.7,8.3 111.7,9.9 L111.7,15.9 C111.7,16.9 111.7,17.7 111.8,18.4 C111.8,19.1 111.9,19.6 112,20 L108.7,20 C108.6,19.8 108.5,19.6 108.5,19.3 C108.3,19 108.2,18.7 108.2,18.3 L108.2,18.3 Z M108.1,16.4 L108.1,12.7 C106.9,13.3 106.1,13.9 105.7,14.4 C105.3,14.9 105,15.5 105,16.3 C105,16.7 105.1,17.1 105.3,17.3 C105.5,17.5 105.7,17.7 106,17.7 C106.4,17.7 106.8,17.6 107.1,17.3 C107.6,17.1 107.9,16.8 108.1,16.4 L108.1,16.4 Z"></path>
                        <path d="M114.5,19.9 L114.5,5.8 L117.8,5.8 L117.8,7.3 C118.4,6.7 119,6.3 119.7,6 C120.4,5.7 121,5.5 121.6,5.5 C122.4,5.5 122.9,5.7 123.3,6.1 C123.7,6.5 123.9,7.1 123.9,8 L123.9,19.8 L120.6,19.8 L120.6,9.2 C120.6,8.8 120.5,8.5 120.4,8.3 C120.3,8.1 120,8.1 119.7,8.1 C119.5,8.1 119.2,8.2 118.8,8.4 C118.5,8.6 118.1,8.9 117.8,9.2 L117.8,19.9 L114.5,19.9 L114.5,19.9 Z"></path>
                        <path d="M132.7,18.3 C132.2,18.9 131.6,19.3 131,19.6 C130.4,19.9 129.7,20.1 129,20.1 C128.1,20.1 127.4,19.8 126.9,19.3 C126.4,18.8 126.2,18 126.2,17 C126.2,15.7 126.7,14.6 127.6,13.6 C128.5,12.7 130.2,11.7 132.6,10.6 L132.6,9.1 C132.6,8.7 132.5,8.4 132.3,8.1 C132.1,7.9 131.8,7.8 131.5,7.8 C131,7.8 130.7,7.9 130.4,8.1 C130.1,8.3 130,8.6 130,9 L130,9.8 L126.7,9.8 L126.7,9.6 L126.7,9.4 C126.7,8.2 127.2,7.3 128.1,6.5 C129,5.8 130.2,5.4 131.6,5.4 C133.1,5.4 134.2,5.8 134.9,6.5 C135.6,7.2 136,8.3 136,9.9 L136,15.9 C136,16.9 136,17.7 136.1,18.4 C136.2,19.1 136.2,19.6 136.3,20 L133,20 C132.9,19.8 132.9,19.6 132.8,19.3 C132.8,19 132.7,18.7 132.7,18.3 L132.7,18.3 Z M132.6,16.4 L132.6,12.7 C131.5,13.3 130.7,13.9 130.2,14.4 C129.8,14.9 129.6,15.5 129.6,16.3 C129.6,16.7 129.7,17.1 129.9,17.3 C130.1,17.5 130.3,17.7 130.6,17.7 C131,17.7 131.4,17.6 131.7,17.3 C132.1,17.1 132.4,16.8 132.6,16.4 L132.6,16.4 Z"></path>
                        <path d="M144.7,18.8 C144.3,19.2 143.8,19.6 143.3,19.8 C142.8,20 142.2,20.1 141.6,20.1 C140.6,20.1 139.9,19.8 139.4,19.3 C138.9,18.8 138.7,18 138.7,17 L138.7,9.1 C138.7,8 139,7.1 139.5,6.5 C140,5.9 140.8,5.6 141.9,5.6 C142.4,5.6 142.9,5.7 143.4,5.9 C143.9,6.1 144.4,6.5 144.8,6.9 L144.8,0.7 L148.1,0.7 L148.1,19.9 L144.8,19.9 L144.8,18.8 L144.7,18.8 Z M144.7,17.2 L144.7,8.4 C144.5,8.2 144.2,8 144,8 C143.8,7.9 143.6,7.9 143.3,7.9 C142.9,7.9 142.6,8 142.3,8.3 C142.1,8.6 142,8.9 142,9.4 L142,16.7 C142,17.2 142.1,17.5 142.3,17.6 C142.5,17.8 142.8,17.9 143.2,17.9 C143.5,17.9 143.8,17.9 144,17.8 C144.2,17.6 144.5,17.4 144.7,17.2 L144.7,17.2 Z"></path>
                        <path d="M150.9,15.9 L150.9,9.6 C150.9,8.4 151.4,7.4 152.3,6.6 C153.2,5.8 154.4,5.4 155.9,5.4 C157.4,5.4 158.5,5.8 159.3,6.5 C160.1,7.2 160.5,8.2 160.5,9.6 L160.5,13.2 L154.3,13.2 L154.3,15.8 C154.3,16.6 154.4,17.1 154.6,17.4 C154.8,17.7 155.2,17.8 155.7,17.8 C156.2,17.8 156.6,17.7 156.8,17.4 C157,17.2 157.1,16.6 157.1,15.8 L157.1,14.8 L160.5,14.8 L160.5,15.9 C160.5,17.3 160.1,18.4 159.3,19.2 C158.5,19.9 157.3,20.3 155.6,20.3 C154.1,20.3 153,19.9 152.1,19.1 C151.3,18.3 150.9,17.3 150.9,15.9 L150.9,15.9 Z M154.2,11 L157.1,11 L157.1,9.6 C157.1,9 157,8.6 156.8,8.3 C156.6,8 156.2,7.9 155.7,7.9 C155.2,7.9 154.8,8 154.6,8.3 C154.4,8.6 154.3,9 154.3,9.6 L154.3,11 L154.2,11 Z"></path>
                        <path d="M163.2,19.9 L163.2,5.8 L166.5,5.8 L166.5,7.7 C166.9,7 167.4,6.5 168,6.1 C168.6,5.7 169.2,5.6 170,5.6 L170.3,5.6 L170.3,8.5 C170.1,8.4 170,8.4 169.8,8.4 L169.2,8.4 C168.4,8.4 167.7,8.6 167.2,9 C166.7,9.4 166.5,10 166.5,10.7 L166.5,20 L163.2,20 L163.2,19.9 Z"></path>
                        <path d="M177.8,18.3 C177.3,18.9 176.7,19.3 176.1,19.6 C175.5,19.9 174.8,20.1 174.2,20.1 C173.3,20.1 172.6,19.8 172.1,19.3 C171.6,18.8 171.4,18 171.4,17 C171.4,15.7 171.9,14.6 172.8,13.6 C173.7,12.7 175.4,11.7 177.9,10.6 L177.9,9.1 C177.9,8.7 177.8,8.4 177.6,8.1 C177.4,7.9 177.1,7.8 176.8,7.8 C176.3,7.8 176,7.9 175.7,8.1 C175.4,8.3 175.3,8.6 175.3,9 L175.3,9.8 L172,9.8 L172,9.6 L172,9.4 C172,8.2 172.5,7.3 173.4,6.5 C174.3,5.8 175.5,5.4 176.9,5.4 C178.4,5.4 179.5,5.8 180.2,6.5 C180.9,7.2 181.3,8.3 181.3,9.9 L181.3,15.9 C181.3,16.9 181.3,17.7 181.4,18.4 C181.4,19.1 181.5,19.6 181.6,20 L178.3,20 C178.2,19.8 178.1,19.6 178.1,19.3 C177.9,19 177.9,18.7 177.8,18.3 L177.8,18.3 Z M177.7,16.4 L177.7,12.7 C176.5,13.3 175.8,13.9 175.3,14.4 C174.9,14.9 174.6,15.5 174.6,16.3 C174.6,16.7 174.7,17.1 174.9,17.3 C175.1,17.5 175.3,17.7 175.6,17.7 C176,17.7 176.4,17.6 176.7,17.3 C177.2,17.1 177.5,16.8 177.7,16.4 L177.7,16.4 Z"></path>
                    </g>
                </g>
            </g>
        </g>
    </g>
</svg>